HIERARCHY
ROOT Hips
{
	OFFSET 0.000000 0.000000 0.000000 
	CHANNELS 6 Xposition Yposition Zposition Zrotation Yrotation Xrotation
	JOINT LeftUpLeg
	{
		OFFSET 1.363060 -1.794630 0.839290 
		CHANNELS 3 Zrotation Yrotation Xrotation
		JOINT LeftLeg
		{
			OFFSET 2.448110 -6.726130 0.000000 
			CHANNELS 3 Zrotation Yrotation Xrotation
			JOINT LeftFoot
			{
				OFFSET 2.562200 -7.039590 0.000000 
				CHANNELS 3 Zrotation Yrotation Xrotation
				JOINT LeftToeBase
				{
					OFFSET 0.157640 -0.433110 2.322550 
					CHANNELS 3 Zrotation Yrotation Xrotation
					End Site
					{
						OFFSET 0.000000 0.000000 0.000000 
					}
				}
			}
		}
	}
	JOINT RightUpLeg
	{
		OFFSET -1.305520 -1.794630 0.839290 
		CHANNELS 3 Zrotation Yrotation Xrotation
		JOINT RightLeg
		{
			OFFSET -2.542530 -6.985550 0.000000 
			CHANNELS 3 Zrotation Yrotation Xrotation
			JOINT RightFoot
			{
				OFFSET -2.568260 -7.056230 0.000000 
				CHANNELS 3 Zrotation Yrotation Xrotation
				JOINT RightToeBase
				{
					OFFSET -0.164730 -0.452590 2.363150 
					CHANNELS 3 Zrotation Yrotation Xrotation
					End Site
					{
						OFFSET 0.000000 0.000000 0.000000 
					}
				}
			}
		}
	}
	JOINT Spine
	{
		OFFSET 0.028270 2.035590 -0.193380 
		CHANNELS 3 Zrotation Yrotation Xrotation
		JOINT Spine1
		{
			OFFSET 0.056720 2.048850 -0.042750 
			CHANNELS 3 Zrotation Yrotation Xrotation
			JOINT Neck1
			{
				OFFSET -0.054170 1.746240 0.172020 
				CHANNELS 3 Zrotation Yrotation Xrotation
				JOINT Head
				{
					OFFSET 0.104070 1.761360 -0.123970 
					CHANNELS 3 Zrotation Yrotation Xrotation
					End Site
					{
						OFFSET 0.000000 0.000000 0.000000 
					}
				}
			}
			JOINT LeftArm
			{
				OFFSET 3.362410 1.200890 -0.311210 
				CHANNELS 3 Zrotation Yrotation Xrotation
				JOINT LeftForeArm
				{
					OFFSET 4.983000 -0.000000 -0.000000 
					CHANNELS 3 Zrotation Yrotation Xrotation
					JOINT LeftHand
					{
						OFFSET 3.483560 -0.000000 -0.000000 
						CHANNELS 3 Zrotation Yrotation Xrotation
						JOINT LeftHandIndex1
						{
							OFFSET 0.715260 -0.000000 -0.000000 
							CHANNELS 3 Zrotation Yrotation Xrotation
							End Site
							{
								OFFSET 0.000000 0.000000 0.000000 
							}
						}
					}
				}
			}
			JOINT RightArm
			{
				OFFSET -3.136600 1.374050 -0.404650 
				CHANNELS 3 Zrotation Yrotation Xrotation
				JOINT RightForeArm
				{
					OFFSET -5.241900 -0.000000 -0.000000 
					CHANNELS 3 Zrotation Yrotation Xrotation
					JOINT RightHand
					{
						OFFSET -3.444170 -0.000000 -0.000000 
						CHANNELS 3 Zrotation Yrotation Xrotation
						JOINT RightHandIndex1
						{
							OFFSET -0.622530 -0.000000 -0.000000 
							CHANNELS 3 Zrotation Yrotation Xrotation
							End Site
							{
								OFFSET 0.000000 0.000000 0.000000 
							}
						}
					}
				}
			}
		}
	}
}
MOTION
Frames: 13
Frame Time: 0.041667
-0.793764 18.309818 5.967742 -2.208963 -0.985216 2.492071 -11.629361 -7.715828 -7.005493 1.098220 7.677418 24.301526 -0.660442 6.988373 -14.890467 8.464600 -16.450600 -54.219400 20.045629 3.172944 7.528278 0.446430 0.886979 1.657287 0.214936 -5.998187 -15.224320 -0.240500 3.156300 -8.714100 -5.549581 1.195755 8.819455 -0.964340 1.129507 -17.055712 5.521646 -3.982913 25.826462 0.915000 -1.206000 7.822800 -92.382186 11.724700 25.233396 25.337858 -34.385648 -6.737839 0.456601 -0.008173 11.442367 -7.125000 0.000000 0.000000 95.938372 -14.680661 19.085294 -33.147226 40.941360 -9.972347 1.015073 -3.240660 14.721437 7.125000 0.000000 0.000000 
-0.793568 18.308641 5.968037 -2.210792 -0.989130 2.519699 -11.614786 -7.722537 -7.027398 1.097962 7.679943 24.301334 -0.655255 6.969575 -14.893645 8.451100 -16.441200 -54.171800 20.057337 3.180386 7.507531 0.446012 0.887245 1.657647 0.207233 -5.959037 -15.231439 -0.227600 3.070700 -8.475600 -5.641411 1.206302 8.789560 -0.968687 1.130869 -17.045845 5.582673 -4.008999 25.851421 0.920000 -1.208500 7.832700 -92.261831 11.792704 25.482278 25.397725 -34.441905 -6.767102 0.459960 -0.001006 11.145131 -7.125000 0.000000 0.000000 95.997043 -14.692315 18.995985 -33.108196 40.905180 -9.944928 1.014146 -3.240384 14.817782 7.125000 0.000000 0.000000 
-0.792587 18.308053 5.967546 -2.161282 -1.020049 2.566817 -11.647120 -7.729596 -7.061584 1.095143 7.684975 24.299717 -0.659399 6.993102 -14.906919 8.452700 -16.442300 -54.177200 20.027515 3.214127 7.477096 0.445901 0.886759 1.657413 0.209046 -5.956348 -15.207213 -0.221900 3.032600 -8.369500 -5.889530 1.231383 8.640535 -0.929250 1.145250 -17.010847 5.749464 -4.079345 25.930915 0.946000 -1.220600 7.851600 -92.196758 11.840796 25.678873 25.724744 -34.754245 -6.885362 0.422065 0.026191 11.598996 -7.125000 0.000000 0.000000 96.070360 -14.735291 18.872634 -33.085451 40.878545 -9.926598 1.014600 -3.240140 14.951354 7.125000 0.000000 0.000000 
-0.791606 18.308935 5.966958 -2.137985 -1.030413 2.623083 -11.674715 -7.733723 -7.112819 1.093863 7.688534 24.301764 -0.665899 7.018256 -14.900050 8.464500 -16.450500 -54.219000 20.002153 3.239218 7.428093 0.445699 0.884667 1.656464 0.209252 -5.954334 -15.199605 -0.215500 2.988800 -8.247500 -5.918544 1.241299 8.498991 -0.913932 1.154415 -16.979761 5.776744 -4.108884 25.979467 0.949900 -1.230600 7.860800 -92.322121 11.728531 25.296670 25.750051 -34.779613 -6.885903 0.404396 0.020331 12.171712 -7.125000 0.000000 0.000000 96.079941 -14.786554 18.802006 -33.103057 40.888273 -9.939071 1.011475 -3.240732 15.010714 7.125000 0.000000 0.000000 
-0.791802 18.309622 5.967056 -2.138756 -0.995066 2.633192 -11.679084 -7.714311 -7.156328 1.096614 7.686477 24.304951 -0.665080 6.997439 -14.850923 8.475300 -16.458000 -54.257200 19.986369 3.216861 7.396935 0.445072 0.884767 1.656462 0.202953 -5.925005 -15.212185 -0.204800 2.914000 -8.039400 -5.781861 1.232491 8.644087 -0.925589 1.151430 -16.997356 5.710430 -4.082091 25.924983 0.940900 -1.227400 7.855300 -92.413897 11.604802 25.047948 25.712431 -34.749052 -6.868369 0.401269 0.014167 12.404022 -7.125000 0.000000 0.000000 96.039185 -14.761231 18.796757 -33.112597 40.904279 -9.953554 1.011588 -3.243377 15.009606 7.125000 0.000000 0.000000 
-0.791018 18.309622 5.966566 -2.124487 -0.965664 2.617275 -11.698174 -7.708616 -7.165358 1.099205 7.684453 24.309031 -0.660516 6.970284 -14.826418 8.482500 -16.462900 -54.282400 19.952128 3.191444 7.388666 0.444375 0.885535 1.657006 0.191908 -5.879598 -15.244086 -0.192700 2.826700 -7.796600 -5.697164 1.214307 8.805744 -0.926869 1.144374 -17.043208 5.712067 -4.050480 25.884776 0.949200 -1.214700 7.855000 -92.437249 11.537855 25.030247 25.711036 -34.752610 -6.865817 0.398133 0.016820 12.404977 -7.125000 0.000000 0.000000 95.969506 -14.730512 18.857622 -33.087005 40.886559 -9.945123 1.011243 -3.245176 14.988801 7.125000 0.000000 0.000000 
-0.790233 18.309131 5.965291 -2.127824 -0.950637 2.583466 -11.706178 -7.731178 -7.142039 1.100528 7.681215 24.311381 -0.657509 6.960923 -14.839484 8.481300 -16.462100 -54.278400 19.932389 3.176820 7.397199 0.443453 0.886733 1.657612 0.182766 -5.831905 -15.252299 -0.182600 2.752300 -7.589900 -5.602228 1.206211 8.996225 -0.945041 1.139293 -17.095706 5.756572 -4.026371 25.824856 0.965800 -1.201500 7.847100 -92.447880 11.465594 25.042123 25.705181 -34.753118 -6.861850 0.395538 0.017561 12.408342 -7.125000 0.000000 0.000000 95.925178 -14.697001 18.884611 -33.039964 40.844092 -9.913306 1.008385 -3.243286 15.033718 7.125000 0.000000 0.000000 
-0.790429 18.308739 5.964310 -2.148199 -0.947620 2.546196 -11.696103 -7.730094 -7.134735 1.102654 7.677979 24.316780 -0.664376 6.982252 -14.829302 8.497000 -16.472900 -54.333700 19.938609 3.176964 7.405755 0.443250 0.888740 1.657889 0.186158 -5.838543 -15.230884 -0.186700 2.783200 -7.675800 -5.478402 1.221708 9.274382 -0.980388 1.142952 -17.134610 5.780593 -4.008107 25.691235 0.974800 -1.195200 7.819400 -92.440837 11.381984 25.098223 25.708507 -34.763625 -6.864192 0.395481 0.016377 12.408995 -7.125000 0.000000 0.000000 95.922187 -14.627729 18.839074 -33.005348 40.823629 -9.894588 1.008084 -3.244074 15.069518 7.125000 0.000000 0.000000 
-0.790626 18.308935 5.962839 -2.166786 -0.953497 2.536969 -11.679531 -7.716084 -7.154877 1.104743 7.678770 24.324939 -0.670293 6.998046 -14.809027 8.513300 -16.484100 -54.391400 19.958950 3.190330 7.393608 0.444206 0.889924 1.657815 0.193257 -5.883838 -15.243171 -0.198900 2.872000 -7.922700 -5.413745 1.239453 9.426975 -1.005977 1.147368 -17.155602 5.769408 -4.002644 25.612583 0.971000 -1.195400 7.802600 -92.426661 11.337195 25.166520 25.726489 -34.785329 -6.873435 0.395721 0.017169 12.341355 -7.125000 0.000000 0.000000 95.910298 -14.576734 18.816670 -32.997980 40.827864 -9.898162 1.010356 -3.247001 15.010805 7.125000 0.000000 0.000000 
-0.790822 18.309426 5.960387 -2.211253 -0.948634 2.532649 -11.638812 -7.704847 -7.176026 1.107610 7.679833 24.332813 -0.666542 6.975347 -14.789993 8.511500 -16.482900 -54.384800 19.996169 3.195647 7.377664 0.444690 0.889991 1.657572 0.195377 -5.903499 -15.258411 -0.206800 2.928200 -8.079000 -5.268198 1.241274 9.499930 -1.050656 1.143151 -17.176936 5.701435 -3.989771 25.541470 0.955300 -1.197800 7.782400 -92.427230 11.317740 25.210183 25.755027 -34.816015 -6.887196 0.394944 0.019944 12.271900 -7.125000 0.000000 0.000000 95.872919 -14.543658 18.841665 -32.988393 40.816794 -9.887773 1.014375 -3.244949 14.966574 7.125000 0.000000 0.000000 
-0.791018 18.309229 5.957837 -2.270039 -0.949253 2.518284 -11.591435 -7.662954 -7.206398 1.112198 7.680631 24.345117 -0.661560 6.944425 -14.761542 8.522200 -16.490300 -54.422700 20.034668 3.207115 7.370693 0.444409 0.889940 1.657135 0.197501 -5.905379 -15.238924 -0.208000 2.936100 -8.100900 -5.041133 1.239512 9.617953 -1.112332 1.137169 -17.199686 5.625475 -3.961111 25.443120 0.943100 -1.196100 7.754600 -92.431298 11.297181 25.256372 25.795718 -34.859247 -6.906893 0.394046 0.022896 12.214610 -7.125000 0.000000 0.000000 95.825945 -14.501126 18.886431 -32.980063 40.806892 -9.877937 1.017313 -3.242650 14.937188 7.125000 0.000000 0.000000 
-0.790822 18.308935 5.955974 -2.284098 -0.951700 2.491721 -11.585314 -7.633384 -7.220849 1.115698 7.681907 24.358017 -0.661860 6.940061 -14.748484 8.527400 -16.493800 -54.440900 20.039548 3.210669 7.378657 0.444501 0.891013 1.657176 0.201760 -5.922391 -15.227881 -0.211500 2.961000 -8.170200 -4.945486 1.234329 9.772285 -1.126875 1.133731 -17.237478 5.537371 -3.923634 25.397923 0.927800 -1.188800 7.744700 -92.436300 11.281283 25.292688 25.836994 -34.904253 -6.927521 0.393679 0.025094 12.172786 -7.125000 0.000000 0.000000 95.784624 -14.460764 18.925019 -32.993372 40.824778 -9.888548 1.017103 -3.242565 14.920558 7.125000 0.000000 0.000000 
-0.790626 18.309229 5.954895 -2.290100 -0.953406 2.483024 -11.586217 -7.674700 -7.207007 1.115991 7.681544 24.361447 -0.662451 6.946378 -14.763548 8.490000 -16.468100 -54.309200 20.043062 3.212530 7.380512 0.444887 0.891683 1.657187 0.206019 -5.946343 -15.228342 -0.221800 3.031300 -8.365900 -4.908253 1.230619 9.853438 -1.129275 1.130964 -17.261360 5.440937 -3.897734 25.412156 0.906400 -1.184500 7.749700 -92.459959 11.259872 25.270697 25.832888 -34.902948 -6.926717 0.394332 0.024712 12.207590 -7.125000 0.000000 0.000000 95.759342 -14.435307 18.935448 -33.021150 40.851802 -9.904114 1.020173 -3.241453 14.916582 7.125000 0.000000 0.000000 
